# xmcd
#
# Track frame offsets:
#	150
#	7010
#	29395
#	47065
#	71087
#	120797
#	137375
#	153382
#	167907
#
# Disc length: 3207 seconds
#
# Revision: 6
# Processed by: cddbd v1.5.2PL0 Copyright (c) Steve Scherf et al.
# Submitted via: audiograbber 1.83.01
#
DISCID=6d0c8509
DTITLE=Jill Scott - Experience: Jill Scott 826+ Disc 2
DYEAR=2001
DGENRE=R&B
TTITLE0=Jill Scott - Free - Prelude
TTITLE1=Jill Scott, 4Hero - Gotta Get Up (Another Day)
TTITLE2=Jill Scott - One Time
TTITLE3=Jill Scott - Sweet Justice
TTITLE4=Jill Scott - Thickness
TTITLE5=Jill Scott, Common - High Post Brotha
TTITLE6=Jill Scott - Gimme
TTITLE7=Jill Scott - Be Ready
TTITLE8=Jill Scott - Free - Epilogue
EXTD=www.RapMusicGuide.com\n
EXTT0=
EXTT1=
EXTT2=
EXTT3=
EXTT4=
EXTT5=
EXTT6=
EXTT7=
EXTT8=
PLAYORDER=
